<svg fill="none" viewBox="0 0 1024 344" xmlns="http://www.w3.org/2000/svg" aria-hidden="true" class="h-[44%] min-h-[2rem] max-h-[3.5rem] w-auto object-contain text-theme-text md:h-[40%]" focusable="false"><path fill-rule="evenodd" clip-rule="evenodd" d="M4 4H106V5H112V6H118V7H121V8H126V9H129V10H131V11H134V12H135V13H138V14H140V15H141V16H143V17H145V18H146V19H148V20H149V21H151V22H152V23H153V24H154V25H155V26H156V27H157V28H158V29H159V30H160V31H161V32H162V33H163V34H164V36H165V37H166V39H167V40H168V41H169V43H170V45H171V47H172V48H173V50H174V52H175V55H176V57H177V60H178V63H179V67H180V70H181V79H182V95H181V104H180V107H179V111H178V114H177V117H176V119H175V122H174V124H173V125H172V127H171V129H170V131H169V133H168V134H167V135H166V137H165V138H164V140H163V141H162V142H161V143H160V144H159V145H158V146H157V147H156V148H155V149H154V150H153V151H152V152H151V153H149V154H147V155H146V156H145V157H143V158H142V159H139V160H138V161H135V162H134V163H131V164H128V165H125V166H121V167H118V168H113V169H103V170H64V255H4ZM585 4H687V5H693V6H699V7H703V8H707V9H710V10H712V11H715V12H717V13H719V14H721V15H722V16H725V17H726V18H728V19H729V20H730V21H732V22H733V23H734V24H736V26H737V27H738V28H739V29H740V30H741V31H742V32H743V33H744V34H745V36H746V37H747V38H748V39H749V41H750V43H751V44H752V46H753V48H754V50H755V52H756V54H757V57H758V59H759V62H760V66H761V71H762V77H763V97H762V103H761V108H760V112H759V115H758V117H757V120H756V122H755V124H754V126H753V128H752V130H751V131H750V133H749V135H748V136H747V137H746V138H745V140H744V141H743V142H742V143H741V144H740V145H739V146H738V147H737V148H736V149H735V150H734V151H733V152H732V153H730V154H729V155H728V156H726V157H725V158H723V159H721V160H719V161H717V162H715V163H712V164H709V165H707V166H703V167H699V168H694V169H684V170H644V255H585ZM830 83H849V84H854V85H858V86H861V87H865V88H867V89H869V90H872V91H873V92H875V93H877V94H879V95H880V96H882V97H883V98H884V99H886V100H887V101H888V102H889V89H941V255H889V242H888V243H887V244H886V245H884V246H883V247H881V248H880V249H878V250H877V251H875V252H873V253H871V254H869V255H866V256H864V257H861V258H858V259H854V260H848V261H831V260H825V259H820V258H816V257H813V256H810V255H807V254H805V253H803V252H801V251H799V250H797V249H796V248H795V247H793V246H791V245H790V244H789V243H787V242H786V241H785V240H784V239H783V238H782V237H781V236H780V235H779V234H778V233H777V232H776V231H775V229H774V228H773V227H772V226H771V224H770V223H769V221H768V220H767V218H766V217H765V214H764V212H763V210H762V208H761V206H760V202H759V200H758V195H757V191H756V185H755V174H754V170H755V159H756V153H757V149H758V144H759V142H760V138H761V136H762V134H763V132H764V130H765V127H766V126H767V124H768V123H769V121H770V120H771V118H772V117H773V116H774V114H775V113H776V112H777V111H778V110H779V109H780V107H782V105H784V104H785V103H786V102H787V101H788V100H790V99H791V98H793V97H795V96H796V95H797V94H800V93H801V92H804V91H805V90H808V89H811V88H813V87H817V86H819V85H824V84H830ZM246 83H266V84H271V85H275V86H278V87H281V88H283V89H286V90H288V91H290V92H292V93H293V94H295V95H297V96H298V97H299V98H301V99H302V100H303V101H304V102H305V89H357V255H305V242H304V243H303V244H302V245H300V246H299V247H298V248H296V249H295V250H293V251H292V252H289V253H288V254H286V255H283V256H281V257H277V258H274V259H270V260H264V261H247V260H241V259H236V258H233V257H229V256H227V255H224V254H221V253H220V252H218V251H216V250H214V249H212V248H211V247H209V246H208V245H206V244H205V243H204V242H203V241H201V240H200V239H199V238H198V237H197V236H196V235H195V234H194V233H193V232H192V230H191V229H190V228H189V227H188V225H187V224H186V222H185V220H184V219H183V217H182V216H181V213H180V211H179V209H178V207H177V205H176V202H175V198H174V193H173V189H172V183H171V161H172V155H173V151H174V146H175V142H176V140H177V137H178V135H179V133H180V131H181V129H182V127H183V125H184V124H185V122H186V120H187V119H188V117H189V116H190V115H191V114H192V112H193V111H194V110H195V109H196V108H197V107H198V106H199V105H200V104H201V103H202V102H204V101H205V100H206V99H208V98H209V97H211V96H212V95H214V94H216V93H218V92H220V91H222V90H224V89H227V88H229V87H233V86H236V85H241V84H246ZM369 89H433V90H434V92H435V94H436V95H437V98H438V99H439V101H440V103H441V105H442V107H443V109H444V111H445V112H446V114H447V115H448V118H449V119H450V122H451V123H452V125H453V127H454V129H455V131H456V133H457V134H458V136H459V138H460V140H461V142H462V143H463V145H464V147H465V149H466V151H467V153H468V154H469V156H470V158H471V160H472V162H473V164H474V166H475V167H476V168H477V166H478V164H479V162H480V160H481V157H482V156H483V154H484V152H485V149H486V148H487V145H488V143H489V141H490V139H491V137H492V135H493V133H494V131H495V129H496V127H497V125H498V122H499V120H500V119H501V117H502V114H503V113H504V110H505V108H506V106H507V104H508V102H509V100H510V98H511V96H512V94H513V92H514V90H515V89H574V91H573V93H572V95H571V97H570V99H569V101H568V103H567V105H566V107H565V109H564V111H563V113H562V115H561V117H560V119H559V121H558V123H557V125H556V126H555V129H554V131H553V133H552V135H551V136H550V139H549V140H548V143H547V145H546V146H545V148H544V150H543V153H542V154H541V156H540V158H539V161H538V162H537V164H536V166H535V168H534V170H533V172H532V174H531V176H530V178H529V180H528V182H527V184H526V186H525V188H524V190H523V192H522V194H521V196H520V198H519V200H518V202H517V203H516V206H515V208H514V210H513V212H512V213H511V216H510V217H509V220H508V222H507V224H506V225H505V227H504V230H503V232H502V234H501V235H500V237H499V239H498V242H497V243H496V245H495V247H494V249H493V252H492V254H491V255H490V257H489V259H488V261H487V264H486V265H485V267H484V269H483V271H482V273H481V275H480V277H479V279H478V281H477V283H476V285H475V287H474V289H473V291H472V293H471V295H470V297H469V299H468V301H467V302H466V305H465V307H464V309H463V311H462V312H461V315H460V316H459V319H458V321H457V323H456V324H455V326H454V329H453V331H452V333H451V334H450V336H449V338H448V340H388V339H389V338H390V336H391V334H392V331H393V330H394V328H395V326H396V324H397V322H398V320H399V318H400V316H401V314H402V312H403V309H404V308H405V306H406V304H407V302H408V300H409V297H410V296H411V294H412V292H413V290H414V288H415V286H416V284H417V282H418V281H419V278H420V276H421V274H422V272H423V270H424V268H425V266H426V264H427V262H428V260H429V259H430V256H431V254H432V252H433V250H434V249H435V246H436V244H437V242H438V240H439V239H440V237H441V234H442V232H443V230H444V228H445V227H446V223H445V222H444V220H443V219H442V217H441V215H440V213H439V211H438V210H437V208H436V206H435V204H434V203H433V201H432V199H431V197H430V195H429V194H428V192H427V191H426V188H425V187H424V185H423V183H422V182H421V180H420V178H419V176H418V175H417V173H416V171H415V169H414V168H413V166H412V164H411V163H410V161H409V159H408V157H407V155H406V154H405V152H404V151H403V149H402V146H401V145H400V143H399V142H398V140H397V138H396V136H395V135H394V133H393V131H392V129H391V127H390V126H389V124H388V122H387V120H386V119H385V117H384V115H383V114H382V112H381V110H380V108H379V107H378V105H377V103H376V101H375V100H374V98H373V96H372V94H371V93H370V91H369ZM962 4H1020V255H962ZM843 134V135H839V136H836V137H834V138H832V139H830V140H828V141H827V142H826V143H825V144H823V146H822V147H821V148H820V149H819V151H818V153H817V155H816V157H815V161H814V168H813V176H814V183H815V187H816V189H817V191H818V193H819V194H820V195H821V197H822V198H823V199H824V200H825V201H826V202H827V203H829V204H830V205H832V206H834V207H836V208H840V209H845V210H854V209H859V208H863V207H865V206H867V205H869V204H870V203H871V202H872V201H874V200H875V199H876V198H877V196H878V195H879V194H880V192H881V190H882V188H883V185H884V181H885V175H886V169H885V162H884V159H883V156H882V154H881V152H880V150H879V149H878V148H877V146H876V145H875V144H874V143H873V142H872V141H870V140H869V139H867V138H865V137H863V136H860V135H855V134ZM260 134V135H256V136H252V137H250V138H248V139H246V140H245V141H243V142H242V143H241V144H240V145H239V146H238V147H237V149H236V150H235V152H234V154H233V156H232V159H231V164H230V180H231V185H232V188H233V190H234V192H235V194H236V195H237V196H238V198H239V199H240V200H241V201H242V202H244V203H245V204H246V205H248V206H251V207H253V208H257V209H261V210H270V209H275V208H279V207H281V206H283V205H285V204H286V203H288V202H289V201H290V200H291V199H292V198H293V197H294V196H295V195H296V193H297V191H298V189H299V186H300V183H301V180H302V164H301V160H300V158H299V155H298V153H297V151H296V149H295V148H294V147H293V146H292V145H291V144H290V143H289V142H288V141H287V140H285V139H283V138H281V137H279V136H276V135H272V134ZM644 56V118H674V117H680V116H682V115H685V114H687V113H688V112H690V111H691V110H693V109H694V108H695V107H696V105H697V104H698V102H699V100H700V97H701V94H702V80H701V77H700V74H699V72H698V70H697V68H696V67H695V66H694V65H693V64H691V63H690V62H688V61H687V60H684V59H682V58H678V57H673V56ZM64 56V118H93V117H99V116H101V115H103V114H106V113H107V112H109V111H110V110H111V109H113V108H114V106H115V105H116V104H117V102H118V100H119V98H120V92H121V82H120V76H119V74H118V72H117V70H116V69H115V68H114V66H113V65H112V64H110V63H109V62H107V61H106V60H103V59H101V58H97V57H92V56Z" fill="currentColor"></path></svg>